HIERARCHY
ROOT Hips
{
  OFFSET 1.93905 94.6688 -11.4221
  CHANNELS 6 Xposition Yposition Zposition Zrotation Xrotation Yrotation
  JOINT LeftUpLeg
  {
    OFFSET 8.64259 1.95398 -2.38835
    CHANNELS 6 Xposition Yposition Zposition Zrotation Xrotation Yrotation
    JOINT LeftLeg
    {
      OFFSET 43.7702 0 0
      CHANNELS 6 Xposition Yposition Zposition Zrotation Xrotation Yrotation
      JOINT LeftFoot
      {
        OFFSET 40.6238 0 0
        CHANNELS 6 Xposition Yposition Zposition Zrotation Xrotation Yrotation
        JOINT LeftToeBase
        {
          OFFSET 12.7242 0 0
          CHANNELS 6 Xposition Yposition Zposition Zrotation Xrotation Yrotation
          End Site
          {
            OFFSET 0 0 0
          }
        }
      }
    }
  }
  JOINT RightUpLeg
  {
    OFFSET -8.2249 1.95398 -2.59336
    CHANNELS 6 Xposition Yposition Zposition Zrotation Xrotation Yrotation
    JOINT RightLeg
    {
      OFFSET 43.5653 0 0
      CHANNELS 6 Xposition Yposition Zposition Zrotation Xrotation Yrotation
      JOINT RightFoot
      {
        OFFSET 40.6238 0 0
        CHANNELS 6 Xposition Yposition Zposition Zrotation Xrotation Yrotation
        JOINT RightToeBase
        {
          OFFSET 12.7242 0 0
          CHANNELS 6 Xposition Yposition Zposition Zrotation Xrotation Yrotation
          End Site
          {
            OFFSET 0 0 0
          }
        }
      }
    }
  }
  JOINT Spine
  {
    OFFSET 0.165834 0.87714 6.61349
    CHANNELS 6 Xposition Yposition Zposition Zrotation Xrotation Yrotation
    JOINT Spine1
    {
      OFFSET 7.38963 1.71661e-005 0
      CHANNELS 6 Xposition Yposition Zposition Zrotation Xrotation Yrotation
      JOINT Spine2
      {
        OFFSET 11.9445 1.14441e-005 0
        CHANNELS 6 Xposition Yposition Zposition Zrotation Xrotation Yrotation
        JOINT Spine3
        {
          OFFSET 14.7254 4.19617e-005 0
          CHANNELS 6 Xposition Yposition Zposition Zrotation Xrotation Yrotation
          JOINT Spine4
          {
            OFFSET 10.9679 0 0
            CHANNELS 6 Xposition Yposition Zposition Zrotation Xrotation Yrotation
            JOINT RightShoulder
            {
              OFFSET 2.46616 -1.6653 3.69651
              CHANNELS 6 Xposition Yposition Zposition Zrotation Xrotation Yrotation
              JOINT RightArm
              {
                OFFSET 13.0012 0 0
                CHANNELS 6 Xposition Yposition Zposition Zrotation Xrotation Yrotation
                JOINT RightForeArm
                {
                  OFFSET 28.7848 1.52588e-005 0
                  CHANNELS 6 Xposition Yposition Zposition Zrotation Xrotation Yrotation
                  JOINT RightHand
                  {
                    OFFSET 26.5688 1.52588e-005 0
                    CHANNELS 6 Xposition Yposition Zposition Zrotation Xrotation Yrotation
                    JOINT RightHandMiddle1
                    {
                      OFFSET 8.03675 -0.886582 0.727868
                      CHANNELS 6 Xposition Yposition Zposition Zrotation Xrotation Yrotation
                      JOINT RightHandMiddle2
                      {
                        OFFSET 2.78833 0 0
                        CHANNELS 6 Xposition Yposition Zposition Zrotation Xrotation Yrotation
                        JOINT RightHandMiddle3
                        {
                          OFFSET 2.41155 0 0
                          CHANNELS 6 Xposition Yposition Zposition Zrotation Xrotation Yrotation
                          End Site
                          {
                            OFFSET 0 0 0
                          }
                        }
                      }
                    }
                    JOINT RightHandRing1
                    {
                      OFFSET 7.97966 -0.886765 -1.00486
                      CHANNELS 6 Xposition Yposition Zposition Zrotation Xrotation Yrotation
                      JOINT RightHandRing2
                      {
                        OFFSET 2.86368 0 0
                        CHANNELS 6 Xposition Yposition Zposition Zrotation Xrotation Yrotation
                        JOINT RightHandRing3
                        {
                          OFFSET 2.11079 0 0
                          CHANNELS 6 Xposition Yposition Zposition Zrotation Xrotation Yrotation
                          End Site
                          {
                            OFFSET 0 0 0
                          }
                        }
                      }
                    }
                    JOINT RightHandPinky1
                    {
                      OFFSET 8.03707 -0.887528 -2.60696
                      CHANNELS 6 Xposition Yposition Zposition Zrotation Xrotation Yrotation
                      JOINT RightHandPinky2
                      {
                        OFFSET 1.84628 0 0
                        CHANNELS 6 Xposition Yposition Zposition Zrotation Xrotation Yrotation
                        JOINT RightHandPinky3
                        {
                          OFFSET 1.88434 0 0
                          CHANNELS 6 Xposition Yposition Zposition Zrotation Xrotation Yrotation
                          End Site
                          {
                            OFFSET 0 0 0
                          }
                        }
                      }
                    }
                    JOINT RightHandIndex1
                    {
                      OFFSET 7.92262 -0.885498 2.31175
                      CHANNELS 6 Xposition Yposition Zposition Zrotation Xrotation Yrotation
                      JOINT RightHandIndex2
                      {
                        OFFSET 2.63761 0 0
                        CHANNELS 6 Xposition Yposition Zposition Zrotation Xrotation Yrotation
                        JOINT RightHandIndex3
                        {
                          OFFSET 2.16656 0 0
                          CHANNELS 6 Xposition Yposition Zposition Zrotation Xrotation Yrotation
                          End Site
                          {
                            OFFSET 0 0 0
                          }
                        }
                      }
                    }
                    JOINT RightHandThumb1
                    {
                      OFFSET 3.4769 0.0597992 2.88789
                      CHANNELS 6 Xposition Yposition Zposition Zrotation Xrotation Yrotation
                      JOINT RightHandThumb2
                      {
                        OFFSET 2.77686 9.72748e-005 -1.52588e-005
                        CHANNELS 6 Xposition Yposition Zposition Zrotation Xrotation Yrotation
                        JOINT RightHandThumb3
                        {
                          OFFSET 2.42058 -9.15528e-005 0
                          CHANNELS 6 Xposition Yposition Zposition Zrotation Xrotation Yrotation
                          End Site
                          {
                            OFFSET 0 0 0
                          }
                        }
                      }
                    }
                  }
                }
              }
            }
            JOINT LeftShoulder
            {
              OFFSET 2.38034 -1.29275 -3.7523
              CHANNELS 6 Xposition Yposition Zposition Zrotation Xrotation Yrotation
              JOINT LeftArm
              {
                OFFSET 16.3182 6.10351e-005 0
                CHANNELS 6 Xposition Yposition Zposition Zrotation Xrotation Yrotation
                JOINT LeftForeArm
                {
                  OFFSET 27.0901 0 0
                  CHANNELS 6 Xposition Yposition Zposition Zrotation Xrotation Yrotation
                  JOINT LeftHand
                  {
                    OFFSET 24.5451 1.52588e-005 0
                    CHANNELS 6 Xposition Yposition Zposition Zrotation Xrotation Yrotation
                    JOINT LeftHandMiddle1
                    {
                      OFFSET 9.21802 0.665817 0.545532
                      CHANNELS 6 Xposition Yposition Zposition Zrotation Xrotation Yrotation
                      JOINT LeftHandMiddle2
                      {
                        OFFSET 2.66255 0 0
                        CHANNELS 6 Xposition Yposition Zposition Zrotation Xrotation Yrotation
                        JOINT LeftHandMiddle3
                        {
                          OFFSET 2.2804 0 0
                          CHANNELS 6 Xposition Yposition Zposition Zrotation Xrotation Yrotation
                          End Site
                          {
                            OFFSET 0 0 0
                          }
                        }
                      }
                    }
                    JOINT LeftHandRing1
                    {
                      OFFSET 9.24775 0.665192 -1.1267
                      CHANNELS 6 Xposition Yposition Zposition Zrotation Xrotation Yrotation
                      JOINT LeftHandRing2
                      {
                        OFFSET 2.47041 0 -1.52588e-005
                        CHANNELS 6 Xposition Yposition Zposition Zrotation Xrotation Yrotation
                        JOINT LeftHandRing3
                        {
                          OFFSET 2.2054 0 0
                          CHANNELS 6 Xposition Yposition Zposition Zrotation Xrotation Yrotation
                          End Site
                          {
                            OFFSET 0 0 0
                          }
                        }
                      }
                    }
                    JOINT LeftHandPinky1
                    {
                      OFFSET 9.35384 0.66301 -2.72332
                      CHANNELS 6 Xposition Yposition Zposition Zrotation Xrotation Yrotation
                      JOINT LeftHandPinky2
                      {
                        OFFSET 1.63407 0 0
                        CHANNELS 6 Xposition Yposition Zposition Zrotation Xrotation Yrotation
                        JOINT LeftHandPinky3
                        {
                          OFFSET 1.71176 0 0
                          CHANNELS 6 Xposition Yposition Zposition Zrotation Xrotation Yrotation
                          End Site
                          {
                            OFFSET 0 0 0
                          }
                        }
                      }
                    }
                    JOINT LeftHandIndex1
                    {
                      OFFSET 8.73161 0.675903 2.06801
                      CHANNELS 6 Xposition Yposition Zposition Zrotation Xrotation Yrotation
                      JOINT LeftHandIndex2
                      {
                        OFFSET 2.66689 0 0
                        CHANNELS 6 Xposition Yposition Zposition Zrotation Xrotation Yrotation
                        JOINT LeftHandIndex3
                        {
                          OFFSET 2.12946 0 1.52588e-005
                          CHANNELS 6 Xposition Yposition Zposition Zrotation Xrotation Yrotation
                          End Site
                          {
                            OFFSET 0 0 0
                          }
                        }
                      }
                    }
                    JOINT LeftHandThumb1
                    {
                      OFFSET 4.96735 -0.62265 3.39586
                      CHANNELS 6 Xposition Yposition Zposition Zrotation Xrotation Yrotation
                      JOINT LeftHandThumb2
                      {
                        OFFSET 2.15386 1.52588e-005 0
                        CHANNELS 6 Xposition Yposition Zposition Zrotation Xrotation Yrotation
                        JOINT LeftHandThumb3
                        {
                          OFFSET 2.19511 -3.43323e-005 1.52588e-005
                          CHANNELS 6 Xposition Yposition Zposition Zrotation Xrotation Yrotation
                          End Site
                          {
                            OFFSET 0 0 0
                          }
                        }
                      }
                    }
                  }
                }
              }
            }
            JOINT Neck
            {
              OFFSET 5.0226 -0.0266342 0
              CHANNELS 6 Xposition Yposition Zposition Zrotation Xrotation Yrotation
              JOINT Head
              {
                OFFSET 6.69364 2.86102e-005 0
                CHANNELS 6 Xposition Yposition Zposition Zrotation Xrotation Yrotation
                End Site
                {
                  OFFSET 0 0 0
                }
              }
            }
          }
        }
      }
    }
  }
}
MOTION
Frames:	4
Frame Time:	0.0333333
99.7128 91.627 -31.5471 -106.649 -38.5055 -104.687 8.64259 1.95398 -2.38835 179.152 48.8278 95.1424 43.7702 7.03335e-006 0 -29.4998 -44.1654 -3.17524 40.6238 1.43051e-006 9.53674e-007 -2.78865 -4.77075 -12.9145 12.7242 2.38419e-006 9.53674e-007 28.7808 4.17459e-006 1.16017e-005 -8.2249 1.95398 -2.59336 -179.97 0.835053 91.3832 43.5653 7.27177e-006 0 -32.7357 16.6031 0.938626 40.6238 2.38419e-006 9.53674e-007 76.15 -4.62045 -2.26244 12.7242 -4.76837e-007 -3.55271e-015 28.7808 1.4467e-005 1.79132e-005 0.165834 0.87714 6.61349 -0.993865 8.41937 -90.2432 7.38963 1.71661e-005 -9.72809e-008 10.0592 -2.59605 0.763697 11.9445 1.14441e-005 6.65395e-008 -1.60944 -2.55992 0.87729 14.7254 4.19617e-005 8.195e-008 -24.1655 -2.70547 -0.052377 10.9679 -9.53674e-006 5.82672e-008 -4.15281 -2.7055 -0.0524023 2.46616 -1.6653 3.69651 93.6169 -43.8186 -96.3601 13.0012 0 1.42109e-014 16.2096 18.7837 10.7277 28.7848 1.52588e-005 -1.19209e-007 -16.8503 -39.3133 -23.3089 26.5688 1.52588e-005 4.76837e-007 -42.5347 2.87267 -12.6532 8.03675 -0.886582 0.727868 -89.4043 88.9709 89.0941 2.78833 2.38419e-007 -7.10543e-015 -0.0604872 6.50809e-006 -2.07022e-006 2.41155 0 -2.13163e-014 -0.0639217 -1.77514e-005 6.66958e-007 7.97966 -0.886765 -1.00486 -89.3952 88.9811 89.085 2.86368 0 -7.10543e-015 -1.15742 -1.06961e-005 7.59309e-008 2.11079 0 7.10543e-015 2.576 -7.42966e-006 -4.85626e-007 8.03707 -0.887528 -2.60696 -88.8572 89.3579 88.547 1.84628 -1.42109e-014 0 -1.14578 -1.1238e-005 0.000123273 1.88434 -1.42109e-014 -7.10543e-015 1.14576 1.40236e-005 -1.17194e-006 7.92262 -0.885498 2.31175 -89.4226 88.9487 89.1123 2.63761 4.76837e-007 0 0.409289 2.23213e-006 0.000572367 2.16656 -2.38419e-007 0 -0.636601 -1.02515e-005 1.60492e-006 3.4769 0.0597992 2.88789 104.364 40.5023 -88.8246 2.77686 9.72748e-005 -1.52588e-005 -7.66903 0.186171 -1.35044 2.42058 -9.15528e-005 1.06581e-014 -11.2634 -7.12193e-007 6.62834e-005 2.38034 -1.29275 -3.7523 8.09295 -55.9993 -157.063 16.3182 6.10351e-005 1.19209e-007 13.9431 -25.7613 -0.371683 27.0901 -2.84217e-014 0 173.131 73.4745 -174.252 24.5451 1.52588e-005 0 67.9675 -9.71624 -17.9816 9.21802 0.665817 0.545532 -91.1873 -87.8289 -89.9988 2.66255 2.84217e-014 -1.06581e-014 3.40888 -5.00061e-006 0.00334979 2.2804 -1.42109e-014 7.10543e-015 -0.954857 1.2455e-005 7.16316e-007 9.24775 0.665192 -1.1267 -91.1871 -89.4015 -89.9985 2.47041 -4.76837e-007 -1.52588e-005 2.85637 -3.93461e-007 0.00275657 2.2054 0 -3.55271e-015 -3.16844 2.37508e-006 -2.31702e-007 9.35384 0.66301 -2.72332 88.8068 -89.717 89.9954 1.63407 -4.76837e-007 0 2.54481 5.09751e-006 0.00243533 1.71176 1.42108e-014 0 -2.54482 -1.02039e-005 -3.81339e-006 8.73161 0.675903 2.06801 -91.1883 -86.1973 -89.9998 2.66689 -9.53674e-007 0 6.13104 -5.67878e-007 0.0068054 2.12946 1.04308e-007 1.52588e-005 -2.04542 6.83798e-006 -1.32222e-006 4.96735 -0.62265 3.39586 -101.949 -40.7242 -90.0694 2.15386 1.52588e-005 0 10.0172 -1.69934e-005 8.38411e-006 2.19511 -3.43323e-005 1.52588e-005 -2.66977 1.86485e-006 2.57586e-006 5.0226 -0.0266342 -9.02389e-013 16.3459 9.07688 -21.2876 6.69364 2.86102e-005 -1.09447e-007 -44.7285 6.93711 21.0512 
99.9302 91.3114 -31.442 -107.538 -38.6806 -104.66 8.64259 1.95398 -2.38835 179.222 48.5418 94.6562 43.7702 7.03335e-006 0 -30.0258 -45.7084 -3.38517 40.6238 1.43051e-006 9.53674e-007 -3.08557 -4.82961 -13.1073 12.7242 2.38419e-006 9.53674e-007 28.7808 4.17459e-006 1.16017e-005 -8.2249 1.95398 -2.59336 -179.79 0.594029 91.9639 43.5653 7.27177e-006 1.42109e-014 -33.5088 17.2306 0.972367 40.6238 2.38419e-006 9.53674e-007 77.2731 -4.01324 -1.97734 12.7242 -4.76837e-007 -3.55271e-015 28.7808 1.4467e-005 1.79132e-005 0.165834 0.87714 6.61349 -1.10089 8.70938 -90.3673 7.38963 1.71661e-005 -9.72809e-008 9.47946 -2.86667 0.523833 11.9445 1.14441e-005 6.65395e-008 -2.18847 -2.84085 0.649595 14.7254 4.19617e-005 8.195e-008 -24.7489 -2.89177 -0.362673 10.9679 -9.53674e-006 5.82672e-008 -4.73626 -2.89176 -0.362692 2.46616 -1.6653 3.69651 92.8403 -44.8191 -97.4266 13.0012 0 1.42109e-014 18.1298 18.3473 13.1592 28.7848 1.52588e-005 -1.19209e-007 -18.4312 -36.3671 -27.0169 26.5688 1.52588e-005 4.76837e-007 -41.3668 1.91931 -10.3145 8.03675 -0.886582 0.727868 -89.4043 88.9709 89.0941 2.78833 2.38419e-007 1.42109e-014 -0.0604872 6.50809e-006 -2.07022e-006 2.41155 0 0 -0.0639217 -1.77514e-005 6.66958e-007 7.97966 -0.886765 -1.00486 -89.3952 88.9811 89.085 2.86368 0 -7.10543e-015 -1.15742 -1.06961e-005 7.59309e-008 2.11079 0 -7.10543e-015 2.576 -7.42966e-006 -4.85626e-007 8.03707 -0.887528 -2.60696 -88.8572 89.3579 88.547 1.84628 -1.42109e-014 0 -1.14578 -1.1238e-005 0.000123273 1.88434 0 7.10543e-015 1.14576 1.40236e-005 -1.17194e-006 7.92262 -0.885498 2.31175 -89.4226 88.9487 89.1123 2.63761 4.76837e-007 1.42109e-014 0.409289 2.23213e-006 0.000572367 2.16656 -2.38419e-007 1.42109e-014 -0.636601 -1.02515e-005 1.60492e-006 3.4769 0.0597992 2.88789 104.364 40.5023 -88.8246 2.77686 9.72748e-005 -1.52588e-005 -7.66903 0.186171 -1.35044 2.42058 -9.15528e-005 0 -11.2634 -7.12193e-007 6.62834e-005 2.38034 -1.29275 -3.7523 14.4382 -57.6126 -151.995 16.3182 6.10351e-005 1.19209e-007 12.4251 -25.0912 0.376444 27.0901 0 0 174.427 70.3339 -175.548 24.5451 1.52588e-005 0 66.1444 -11.3061 -20.7705 9.21802 0.665817 0.545532 -91.1873 -87.8289 -89.9988 2.66255 2.13163e-014 7.10543e-015 3.40888 -5.00061e-006 0.00334979 2.2804 -1.42109e-014 -7.10543e-015 -0.954857 1.2455e-005 7.16316e-007 9.24775 0.665192 -1.1267 -91.1871 -89.4015 -89.9985 2.47041 -4.76837e-007 -1.52588e-005 2.85637 -3.93461e-007 0.00275657 2.2054 0 0 -3.16844 2.37508e-006 -2.31702e-007 9.35384 0.66301 -2.72332 88.8068 -89.717 89.9954 1.63407 -4.76837e-007 -7.10543e-015 2.54481 5.09751e-006 0.00243533 1.71176 1.42108e-014 0 -2.54482 -1.02039e-005 -3.81339e-006 8.73161 0.675903 2.06801 -91.1883 -86.1973 -89.9998 2.66689 -9.53674e-007 7.10543e-015 6.13104 -5.67878e-007 0.0068054 2.12946 1.04308e-007 1.52588e-005 -2.04542 6.83798e-006 -1.32222e-006 4.96735 -0.62265 3.39586 -101.949 -40.7242 -90.0694 2.15386 1.52588e-005 -7.10543e-015 10.0172 -1.69934e-005 8.38411e-006 2.19511 -3.43323e-005 1.52588e-005 -2.66977 1.86485e-006 2.57586e-006 5.0226 -0.0266342 -9.02389e-013 17.8475 8.05526 -21.5795 6.69364 2.86102e-005 -1.09447e-007 -45.0029 6.11829 21.3169 
100.07 91.0043 -31.3062 -107.895 -39.1709 -104.253 8.64259 1.95398 -2.38835 179.326 48.8038 93.9862 43.7702 7.03335e-006 -1.42109e-014 -30.2271 -45.1813 -3.31798 40.6238 1.43051e-006 9.53674e-007 -2.97898 -4.33184 -12.111 12.7242 2.38419e-006 9.53674e-007 28.7808 4.17459e-006 1.16017e-005 -8.2249 1.95398 -2.59336 -179.659 0.769639 92.6453 43.5653 7.27177e-006 -7.10543e-015 -34.387 17.2507 0.960077 40.6238 2.38419e-006 9.53674e-007 77.9453 -3.42154 -1.71872 12.7242 -4.76837e-007 -3.55271e-015 28.7808 1.4467e-005 1.79132e-005 0.165834 0.87714 6.61349 -1.19032 8.91742 -90.4996 7.38963 1.71661e-005 -9.72809e-008 9.06191 -3.11141 0.257024 11.9445 1.14441e-005 6.65395e-008 -2.60539 -3.09706 0.393836 14.7254 4.19617e-005 8.195e-008 -25.1695 -3.04038 -0.690816 10.9679 -9.53674e-006 5.82672e-008 -5.15686 -3.04038 -0.690837 2.46616 -1.6653 3.69651 92.466 -45.9269 -97.8424 13.0012 1.42109e-014 0 21.3512 17.6517 16.8706 28.7848 1.52588e-005 -1.19209e-007 -19.0442 -26.9839 -34.4268 26.5688 1.52588e-005 4.76837e-007 -36.9602 0.594583 -6.98128 8.03675 -0.886582 0.727868 -89.4043 88.9709 89.0941 2.78833 2.38419e-007 0 -0.0604872 6.50809e-006 -2.07022e-006 2.41155 1.42109e-014 0 -0.0639217 -1.77514e-005 6.66958e-007 7.97966 -0.886765 -1.00486 -89.3952 88.9811 89.085 2.86368 0 -1.42109e-014 -1.15742 -1.06961e-005 7.5931e-008 2.11079 -1.42109e-014 7.10543e-015 2.576 -7.42966e-006 -4.85626e-007 8.03707 -0.887528 -2.60696 -88.8572 89.3579 88.547 1.84628 -1.42109e-014 0 -1.14578 -1.1238e-005 0.000123273 1.88434 -1.42109e-014 7.10543e-015 1.14576 1.40236e-005 -1.17194e-006 7.92262 -0.885498 2.31175 -89.4226 88.9487 89.1123 2.63761 4.76837e-007 0 0.409289 2.23213e-006 0.000572367 2.16656 -2.38419e-007 -7.10543e-015 -0.636601 -1.02515e-005 1.60492e-006 3.4769 0.0597992 2.88789 104.364 40.5023 -88.8246 2.77686 9.72748e-005 -1.52588e-005 -7.66903 0.186171 -1.35044 2.42058 -9.15528e-005 0 -11.2634 -7.12193e-007 6.62834e-005 2.38034 -1.29275 -3.7523 19.8061 -58.5955 -147.596 16.3182 6.10351e-005 1.19209e-007 11.6511 -24.9055 0.21058 27.0901 0 0 176.758 60.1037 -177.887 24.5451 1.52588e-005 1.42109e-014 66.0196 -10.6982 -19.9118 9.21802 0.665817 0.545532 -91.1873 -87.8289 -89.9988 2.66255 7.10543e-015 -7.10543e-015 3.40888 -5.00061e-006 0.00334979 2.2804 -7.10543e-015 0 -0.954857 1.2455e-005 7.16316e-007 9.24775 0.665192 -1.1267 -91.1871 -89.4015 -89.9985 2.47041 -4.76837e-007 -1.52588e-005 2.85637 -3.93461e-007 0.00275657 2.2054 -7.10543e-015 0 -3.16844 2.37508e-006 -2.31702e-007 9.35384 0.66301 -2.72332 88.8068 -89.717 89.9954 1.63407 -4.76837e-007 7.10543e-015 2.54481 5.09751e-006 0.00243533 1.71176 -7.10542e-015 -7.10543e-015 -2.54482 -1.02039e-005 -3.81339e-006 8.73161 0.675903 2.06801 -91.1883 -86.1973 -89.9998 2.66689 -9.53674e-007 7.10543e-015 6.13104 -5.67878e-007 0.0068054 2.12946 1.04308e-007 1.52588e-005 -2.04542 6.83798e-006 -1.32222e-006 4.96735 -0.62265 3.39586 -101.949 -40.7242 -90.0694 2.15386 1.52588e-005 0 10.0172 -1.69934e-005 8.38411e-006 2.19511 -3.43323e-005 1.52588e-005 -2.66977 1.86485e-006 2.57586e-006 5.0226 -0.0266342 -9.02389e-013 19.0092 7.0413 -21.9679 6.69364 2.86102e-005 -1.09447e-007 -45.1558 5.19035 21.8805 
100.132 90.8492 -31.0955 -107.658 -39.1303 -103.573 8.64259 1.95398 -2.38835 179.399 49.059 93.5522 43.7702 7.03335e-006 -7.10543e-015 -30.0957 -45.7957 -3.40742 40.6238 1.43051e-006 9.53674e-007 -2.83651 -4.22167 -11.851 12.7242 2.38419e-006 9.53674e-007 28.7808 4.17459e-006 1.16017e-005 -8.2249 1.95398 -2.59336 -179.556 1.00283 93.075 43.5653 7.27177e-006 -1.42109e-014 -34.6639 17.2315 0.952741 40.6238 2.38419e-006 9.53674e-007 78.4932 -3.2909 -1.65913 12.7242 -4.76837e-007 0 28.7808 1.4467e-005 1.79132e-005 0.165834 0.87714 6.61349 -1.19484 9.05525 -90.5958 7.38963 1.71661e-005 -9.72809e-008 8.78282 -3.16383 0.0397605 11.9445 1.14441e-005 6.65395e-008 -2.88431 -3.15942 0.179173 14.7254 4.19617e-005 8.195e-008 -25.4486 -3.0311 -0.914342 10.9679 -9.53674e-006 5.82672e-008 -5.43596 -3.03109 -0.914351 2.46616 -1.6653 3.69651 92.1873 -47.0748 -98.0446 13.0012 0 0 21.6732 17.433 18.4394 28.7848 1.52588e-005 -1.19209e-007 -23.0115 -34.8311 -34.6175 26.5688 1.52588e-005 4.76837e-007 -36.3452 1.26 -9.07512 8.03675 -0.886582 0.727868 -89.4043 88.9709 89.0941 2.78833 2.38419e-007 3.55271e-015 -0.0604872 6.50809e-006 -2.07022e-006 2.41155 1.42109e-014 -1.06581e-014 -0.0639217 -1.77514e-005 6.66958e-007 7.97966 -0.886765 -1.00486 -89.3952 88.9811 89.085 2.86368 0 0 -1.15742 -1.06961e-005 7.59309e-008 2.11079 -1.42109e-014 -7.10543e-015 2.576 -7.42966e-006 -4.85626e-007 8.03707 -0.887528 -2.60696 -88.8572 89.3579 88.547 1.84628 0 -7.10543e-015 -1.14578 -1.1238e-005 0.000123273 1.88434 0 3.55271e-015 1.14576 1.40236e-005 -1.17194e-006 7.92262 -0.885498 2.31175 -89.4226 88.9487 89.1123 2.63761 4.76837e-007 0 0.409289 2.23213e-006 0.000572367 2.16656 -2.38419e-007 0 -0.636601 -1.02515e-005 1.60492e-006 3.4769 0.0597992 2.88789 104.364 40.5023 -88.8246 2.77686 9.72748e-005 -1.52588e-005 -7.66903 0.186171 -1.35044 2.42058 -9.15528e-005 -1.06581e-014 -11.2634 -7.12193e-007 6.62834e-005 2.38034 -1.29275 -3.7523 21.6394 -58.7002 -145.985 16.3182 6.10351e-005 1.19209e-007 9.60685 -24.592 -1.02083 27.0901 0 0 177.786 51.3345 -178.922 24.5451 1.52588e-005 7.10543e-015 63.6448 -10.6388 -20.5223 9.21802 0.665817 0.545532 -91.1873 -87.8289 -89.9988 2.66255 7.10543e-015 0 3.40888 -5.00061e-006 0.00334979 2.2804 7.10543e-015 0 -0.954857 1.2455e-005 7.16316e-007 9.24775 0.665192 -1.1267 -91.1871 -89.4015 -89.9985 2.47041 -4.76837e-007 -1.52588e-005 2.85637 -3.93461e-007 0.00275657 2.2054 7.10543e-015 7.10543e-015 -3.16844 2.37508e-006 -2.31702e-007 9.35384 0.66301 -2.72332 88.8068 -89.717 89.9954 1.63407 -4.76837e-007 -7.10543e-015 2.54481 5.09751e-006 0.00243533 1.71176 0 0 -2.54482 -1.02039e-005 -3.81339e-006 8.73161 0.675903 2.06801 -91.1883 -86.1973 -89.9998 2.66689 -9.53674e-007 0 6.13104 -5.67878e-007 0.0068054 2.12946 1.04308e-007 1.52588e-005 -2.04542 6.83798e-006 -1.32222e-006 4.96735 -0.62265 3.39586 -101.949 -40.7242 -90.0694 2.15386 1.52588e-005 -1.42109e-014 10.0172 -1.69934e-005 8.38411e-006 2.19511 -3.43323e-005 1.52588e-005 -2.66977 1.86485e-006 2.57586e-006 5.0226 -0.0266342 -9.09495e-013 19.6299 5.98162 -22.6231 6.69364 2.86102e-005 -1.09447e-007 -45.0416 4.11557 22.8114 
